HIERARCHY
ROOT root
{
	OFFSET	0	13.1	24.9
	CHANNELS 6  Xposition Yposition Zposition Xrotation Yrotation Zrotation
	JOINT spine_1
	{
		OFFSET	0	9.99999	0
		CHANNELS 3  Xrotation Yrotation Zrotation
		JOINT spine_2
		{
			OFFSET	0	112	-10
			CHANNELS 3  Xrotation Yrotation Zrotation
			JOINT spine_3
			{
				OFFSET	0	206.5	19.3
				CHANNELS 3  Xrotation Yrotation Zrotation
				JOINT spine_4
				{
					OFFSET	0	110.4	14.6
					CHANNELS 3  Xrotation Yrotation Zrotation
					JOINT neck_1
					{
						OFFSET	0	71.8	-50.3
						CHANNELS 3  Xrotation Yrotation Zrotation
						JOINT neck_2
						{
							OFFSET	0	86.2	-25.8
							CHANNELS 3  Xrotation Yrotation Zrotation
							JOINT head_ee
							{
								OFFSET	0	179.8	-8.7
								CHANNELS 3  Xrotation Yrotation Zrotation
								End Site
								{
									OFFSET	1	0	0
								}
							}
						}
					}
					JOINT left_clavicle
					{
						OFFSET	-43.2	22.4	-70.8
						CHANNELS 3  Xrotation Yrotation Zrotation
						JOINT left_shoulder
						{
							OFFSET	-93.9	-5.79999	48.7
							CHANNELS 3  Xrotation Yrotation Zrotation
							JOINT left_elbow
							{
								OFFSET	-291.4	-30.8	15.2
								CHANNELS 3  Xrotation Yrotation Zrotation
								JOINT left_lowarm_twist
								{
									OFFSET	-110.7	-3.89999	13.6
									CHANNELS 3  Xrotation Yrotation Zrotation
									JOINT left_hand
									{
										OFFSET	-110.7	-3.89999	13.6
										CHANNELS 3  Xrotation Yrotation Zrotation
										JOINT left_ee
										{
											OFFSET	-80.8	-5.10001	12.1
											CHANNELS 3  Xrotation Yrotation Zrotation
											End Site
											{
												OFFSET	1	0	0
											}
										}
									}
								}
							}
						}
					}
					JOINT right_clavicle
					{
						OFFSET	43.2	22.4	-70.8
						CHANNELS 3  Xrotation Yrotation Zrotation
						JOINT right_shoulder
						{
							OFFSET	93.9	-5.79999	48.7
							CHANNELS 3  Xrotation Yrotation Zrotation
							JOINT right_elbow
							{
								OFFSET	291.4	-30.8	15.2
								CHANNELS 3  Xrotation Yrotation Zrotation
								JOINT right_lowarm_twist
								{
									OFFSET	110.7	-3.89999	13.6
									CHANNELS 3  Xrotation Yrotation Zrotation
									JOINT right_hand
									{
										OFFSET	110.7	-3.89999	13.6
										CHANNELS 3  Xrotation Yrotation Zrotation
										JOINT right_ee
										{
											OFFSET	80.8	-5.10001	12.1
											CHANNELS 3  Xrotation Yrotation Zrotation
											End Site
											{
												OFFSET	1	0	0
											}
										}
									}
								}
							}
						}
					}
				}
			}
		}
	}
	JOINT left_hip
	{
		OFFSET	-82.8	-127.5	0.300001
		CHANNELS 3  Xrotation Yrotation Zrotation
		JOINT left_knee
		{
			OFFSET	-28.2	-396.7	2.2
			CHANNELS 3  Xrotation Yrotation Zrotation
			JOINT left_ankle
			{
				OFFSET	-11.7	-411.3	35.4
				CHANNELS 3  Xrotation Yrotation Zrotation
				JOINT left_toes
				{
					OFFSET	0	-60	-88.6
					CHANNELS 3  Xrotation Yrotation Zrotation
					JOINT left_foot_ee
					{
						OFFSET	-22.5	-16.5	-42.2
						CHANNELS 3  Xrotation Yrotation Zrotation
						End Site
						{
							OFFSET	1	0	0
						}
					}
				}
			}
		}
	}
	JOINT right_hip
	{
		OFFSET	82.8	-127.5	0.300001
		CHANNELS 3  Xrotation Yrotation Zrotation
		JOINT right_knee
		{
			OFFSET	28.2	-396.7	2.2
			CHANNELS 3  Xrotation Yrotation Zrotation
			JOINT right_ankle
			{
				OFFSET	11.7	-411.3	35.4
				CHANNELS 3  Xrotation Yrotation Zrotation
				JOINT right_toes
				{
					OFFSET	0	-60	-88.6
					CHANNELS 3  Xrotation Yrotation Zrotation
					JOINT right_foot_ee
					{
						OFFSET	22.5	-16.5	-42.2
						CHANNELS 3  Xrotation Yrotation Zrotation
						End Site
						{
							OFFSET	1	0	0
						}
					}
				}
			}
		}
	}
}
MOTION
Frames: 6
Frame Time: 0.02
1041.4 574.639 -1682.42 -16.7349626185 44.4867829162 20.5741849105 5.68478 -0.543399 -3.16073 5.69028 -0.341277 -3.18887 5.70344 0.0177854 -3.20701 5.68942 -0.488666 -3.16965 0.778903 -0.184616 3.11909 0.8189 -2.90979 3.36899 -0.0 0.0 -0.0 3.44261 24.333 7.45065 -12.1171 2.28968 67.0319 0.442123 -12.3538 0.0478498 -35.2749 -2.46324 3.70106 5.57668 26.3512 47.8472 -0.0 0.0 -0.0 10.0986 4.33248 -20.018 8.47157 -16.1405 -54.3386 1.67911 39.7497 -0.607033 6.35477 -0.180162 0.791329 7.58606 -13.5087 -73.0605 0.0 0.0 0.0 37.3479 -27.7116 -6.86967 -2.43922 0.0927187 0.362828 2.05971 23.2834 -0.310395 5.90416 -0.0 -0.0 -0.0 0.0 -0.0 6.88656 7.233 -15.0982 -14.0402 -0.319018 -2.12565 42.7854 -19.5262 5.26615 9.53482 -0.0 -0.0 0.0 0.0 0.0 
1041.4 574.639 -1682.42 -16.8899689457 45.0043584895 20.7943745367 5.68478 -0.543399 -3.16073 5.69028 -0.341277 -3.18887 5.70344 0.0177854 -3.20701 5.68942 -0.488666 -3.16965 0.778903 -0.184616 3.11909 0.8189 -2.90979 3.36899 -0.0 0.0 -0.0 3.44261 24.333 7.45065 -12.1171 2.28968 67.0319 0.442123 -12.3538 0.0478498 -35.2749 -2.46324 3.70106 5.57668 26.3512 47.8472 -0.0 0.0 -0.0 10.0986 4.33248 -20.018 8.47157 -16.1405 -54.3386 1.67911 39.7497 -0.607033 6.35477 -0.180162 0.791329 7.58606 -13.5087 -73.0605 0.0 0.0 0.0 37.3479 -27.7116 -6.86967 -2.43922 0.0927187 0.362828 2.05971 23.2834 -0.310395 5.90416 -0.0 -0.0 -0.0 0.0 -0.0 6.88656 7.233 -15.0982 -14.0402 -0.319018 -2.12565 42.7854 -19.5262 5.26615 9.53482 -0.0 -0.0 0.0 0.0 0.0 
1041.4 574.639 -1682.42 -17.1290524975 45.7753274264 21.1302043987 5.68478 -0.543399 -3.16073 5.69028 -0.341277 -3.18887 5.70344 0.0177854 -3.20701 5.68942 -0.488666 -3.16965 0.778903 -0.184616 3.11909 0.8189 -2.90979 3.36899 -0.0 0.0 -0.0 3.44261 24.333 7.45065 -12.1171 2.28968 67.0319 0.442123 -12.3538 0.0478498 -35.2749 -2.46324 3.70106 5.57668 26.3512 47.8472 -0.0 0.0 -0.0 10.0986 4.33248 -20.018 8.47157 -16.1405 -54.3386 1.67911 39.7497 -0.607033 6.35477 -0.180162 0.791329 7.58606 -13.5087 -73.0605 0.0 0.0 0.0 37.3479 -27.7116 -6.86967 -2.43922 0.0927187 0.362828 2.05971 23.2834 -0.310395 5.90416 -0.0 -0.0 -0.0 0.0 -0.0 6.88656 7.233 -15.0982 -14.0402 -0.319018 -2.12565 42.7854 -19.5262 5.26615 9.53482 -0.0 -0.0 0.0 0.0 0.0 
1041.4 574.639 -1682.42 -17.1939067472 45.9790033896 21.2205495137 5.68478 -0.543399 -3.16073 5.69028 -0.341277 -3.18887 5.70344 0.0177854 -3.20701 5.68942 -0.488666 -3.16965 0.778903 -0.184616 3.11909 0.8189 -2.90979 3.36899 -0.0 0.0 -0.0 3.44261 24.333 7.45065 -12.1171 2.28968 67.0319 0.442123 -12.3538 0.0478498 -35.2749 -2.46324 3.70106 5.57668 26.3512 47.8472 -0.0 0.0 -0.0 10.0986 4.33248 -20.018 8.47157 -16.1405 -54.3386 1.67911 39.7497 -0.607033 6.35477 -0.180162 0.791329 7.58606 -13.5087 -73.0605 0.0 0.0 0.0 37.3479 -27.7116 -6.86967 -2.43922 0.0927187 0.362828 2.05971 23.2834 -0.310395 5.90416 -0.0 -0.0 -0.0 0.0 -0.0 6.88656 7.233 -15.0982 -14.0402 -0.319018 -2.12565 42.7854 -19.5262 5.26615 9.53482 -0.0 -0.0 0.0 0.0 0.0 
1018.79173853 571.719 -1701.83207133 -17.2956373121 45.6682996755 21.4306990459 6.07568 -0.409778 -3.16965 6.08125 -0.207359 -3.18927 6.08634 0.129756 -3.19337 6.07231 -0.375946 -3.17383 2.57464 0.0494991 3.65851 2.62942 -3.0192 4.06324 -0.0 0.0 -0.0 4.07941 24.4265 8.31679 -10.3856 4.13328 67.0694 0.50997 -14.1779 0.0634205 -33.5575 -2.2935 3.56062 5.53632 26.4498 47.4826 -0.0 0.0 -0.0 9.8956 3.57754 -19.569 5.29555 -16.812 -54.7253 1.61763 38.7032 -0.568157 6.57423 -0.184808 0.818979 7.57409 -14.6174 -73.4643 0.0 0.0 0.0 37.4777 -27.9554 -7.10448 -7.0256 0.224863 1.0541 2.15282 24.6817 -0.326581 8.21232 -0.0 -0.0 -0.0 0.0 -0.0 4.99561 7.46183 -14.7494 -13.0012 -0.313362 -1.96635 42.5068 -18.6157 5.22085 11.2524 -0.0 -0.0 0.0 0.0 0.0 
1018.64779488 571.719 -1701.66315885 -17.4269025934 46.0755720819 21.6135732143 6.07568 -0.409778 -3.16965 6.08125 -0.207359 -3.18927 6.08634 0.129756 -3.19337 6.07231 -0.375946 -3.17383 2.57464 0.0494991 3.65851 2.62942 -3.0192 4.06324 -0.0 0.0 -0.0 4.07941 24.4265 8.31679 -10.3856 4.13328 67.0694 0.50997 -14.1779 0.0634205 -33.5575 -2.2935 3.56062 5.53632 26.4498 47.4826 -0.0 0.0 -0.0 9.8956 3.57754 -19.569 5.29555 -16.812 -54.7253 1.61763 38.7032 -0.568157 6.57423 -0.184808 0.818979 7.57409 -14.6174 -73.4643 0.0 0.0 0.0 37.4777 -27.9554 -7.10448 -7.0256 0.224863 1.0541 2.15282 24.6817 -0.326581 8.21232 -0.0 -0.0 -0.0 0.0 -0.0 4.99561 7.46183 -14.7494 -13.0012 -0.313362 -1.96635 42.5068 -18.6157 5.22085 11.2524 -0.0 -0.0 0.0 0.0 0.0 
